<?xml version="1.0" encoding="utf-8"?>
<!-- Generator: Adobe Illustrator 17.1.0, SVG Export Plug-In . SVG Version: 6.00 Build 0)  -->
<!DOCTYPE svg PUBLIC "-//W3C//DTD SVG 1.1//EN" "http://www.w3.org/Graphics/SVG/1.1/DTD/svg11.dtd">
<svg version="1.1" id="Layer_1" xmlns="http://www.w3.org/2000/svg" xmlns:xlink="http://www.w3.org/1999/xlink" x="0px" y="0px"
	 viewBox="0 0 470.3 190.1" enable-background="new 0 0 470.3 190.1" xml:space="preserve">
<g>
	<path fill="#010101" d="M226.6,100.2c-3.7,0-4.3-2.8-5.1-4.4c-0.8-1.5-1.5-2.5-1.7-3.6c-1.4-5.7-3.6-5.9-8.4-8.4
		c-3.9-2.1-2.8-2.6-6.1-3.4c-3.3-0.8-4.1,0.5-8.4-0.6c-4.4-1.1-2.8-6.5-0.9-11.2c1.9-4.6,2.1-15,4-20.5c1.9-5.5,0.8-14.8,2.7-17.8
		c0.9-1.4,0.8-3.1,0.8-4.7c0-0.2-0.2-0.3-0.2-0.5c0-0.1,0.2-0.3,0.2-0.4c0-0.3,0-0.6-0.2-1c-0.1-0.2-0.4-0.4-0.5-0.5
		c-0.1-0.1,0-0.4-0.1-0.6c-0.1-0.1-0.2-0.2-0.3-0.3c-0.3-0.3-0.4-0.3-0.6-0.3c-0.1,0,0,0.3,0,0.6c0,0.1-0.1,0.3-0.1,0.5
		c0,0.1,0.2,0.3,0.2,0.4c0,0.2,0,0.2,0,0.3c0,0.1-0.4,0.2-0.5,0.3c-0.1,0.1,0.1,0.3-0.1,0.4c-0.2,0.1-0.6-0.4-0.7-0.4
		c-0.1,0,0.1-0.1-0.1-0.2c-0.2-0.1,0-0.5-0.1-0.5c-0.1,0-0.1,0.1-0.2,0.1c-0.1,0-0.1-0.1-0.2-0.1c-0.2,0-0.1-0.5-0.2-0.7
		c-0.1-0.2-0.3-0.2-0.4-0.2c-0.6-0.2-0.5,0-0.7,0c-0.3,0-0.6-0.8-0.8-1c-0.1-0.2,0.3-0.8,0.1-0.8c-0.3,0.1-0.4-0.2-1-0.3
		c-0.3,0-0.5,0.1-0.8,0.2c-0.4,0.1-0.7,0.2-0.9,0.3c-0.3,0.2-0.6,0.9-0.7,1.4c-0.1,0.3,0.1,0.4,0,0.8c-0.1,0.3-0.6,0.5-0.7,0.8
		c-0.2,0.5-0.1,1.2-0.4,1.7c-3.8,5.5-7.7,13.9-11.3,20.7c-2.2,4.1-5.4,8.8-8.1,16.4c-2.7,7.7-4.3,14.2-9.8,20.8
		c-1.7,2-3.4,3.9-5,5.7c-0.2,0.2-0.4,0.7-0.7,1c-0.1,0.1-0.3,0.1-0.4,0.2c-0.1,0.1-0.3,0.3-0.4,0.4c-0.1,0.2-0.1-0.1-0.3,0.1
		c-0.1,0.1-0.1,0.3-0.2,0.5c-0.1,0.3-0.4,0.5-0.5,0.7c-0.1,0.1-0.2,0-0.3,0.1c-0.1,0.1-0.3,0.3-0.4,0.4c-0.1,0.1-0.3,0.4-0.4,0.5
		c-0.1,0.2,0,0.3-0.1,0.4c-0.1,0.1-0.3,0.1-0.4,0.2c-0.2,0.1-0.3,0.3-0.4,0.4c-0.1,0.2-0.1,0.4-0.2,0.5c-0.1,0.1-0.2,0.2-0.3,0.3
		c-0.1,0.1-0.1,0.2-0.2,0.4c-0.2,0.3-0.5,0.7-0.6,0.9c-0.1,0.1,0.1,0.1,0.1,0.3c0,0.1-0.2,0.4-0.2,0.4c-0.3,0.4,0,1.1-0.3,1.5
		c-0.1,0.1-0.3,0.2-0.4,0.3c-0.1,0.1-0.1,0.2-0.2,0.4c-0.2,0.2-0.2,0.5-0.3,0.7c-0.2,0.2-0.5,0.3-0.7,0.5c-0.1,0.1,0,0.3,0,0.5
		c0,0.1-0.1,0.4-0.1,0.5c0,0.3-0.1,0.5-0.1,0.6c-0.1,0.1,0,0.2,0,0.2c0,0.1-0.2,0.1-0.2,0.2c0,0.1,0.2,0.3,0.3,0.4
		c0,0.1-0.1,0.2-0.1,0.3c0,0.3-0.2,0.5-0.1,0.8c0,0.1-0.2,0.2-0.2,0.3c0,0.1,0,0.2,0.1,0.3c0,0.1-0.4,0.3-0.4,0.6
		c0,0.1,0.1,0.2,0.2,0.3c0,0.1-0.1,0.3,0,0.4c0,0.1-0.3,0.1-0.5,0.3c-0.2,0.2-0.2,0.5-0.2,0.6c0,0.1-0.2,0.1-0.2,0.1
		c0,0.1,0.2,0.2,0.2,0.3c0,0.1-0.2,0.1-0.2,0.2c0,0.2-0.5-0.1-0.5,0.1c0,0.1,0,0.2,0,0.3c0,0.1-0.4,0.1-0.5,0.2
		c0,0.1,0.1,0.3,0.1,0.5c-0.1,0.2-0.1,0.3-0.2,0.5c-0.1,0.2-0.4,0.2-0.5,0.3c-0.2,0.2-0.1,0.3-0.2,0.5c-0.1,0.2-0.5,0.4-0.7,0.6
		c-0.3,0.3-0.5,0.7-0.8,1c-0.1,0.2-0.3,0.7-0.4,0.9c-0.2,0.4-0.6,0.5-0.7,0.8c0,0.1-0.6,0.8-0.6,0.8c0.2,0.2-0.1,0.8,0.2,0.6
		c0.2-0.1,0,0,0.3-0.2c0.1-0.1,0-0.2,0.1-0.3c0.1-0.1,0.2,0.2,0.3,0.1c0.1-0.1,0.4-0.2,0.5-0.3c0.1,0,0.4-0.4,0.4-0.4
		c0.1-0.1,0.2-0.3,0.4-0.4c0.2-0.1,0-0.5,0.2-0.6c0.1-0.1,0.2,0,0.3-0.1c0.2-0.1,0.4-0.4,0.6-0.6c0.1-0.1,0.1-0.4,0.2-0.6
		c0-0.1,0.2,0,0.2-0.1c0.1-0.2,0.2-0.4,0.2-0.5c0-0.2,0.2-0.2,0.4-0.3c0.1-0.1,0-0.2,0.1-0.3c0.1-0.1,0.3-0.1,0.4-0.3
		c0.1-0.1,0.2-0.4,0.3-0.5c0.1-0.1,0.2-0.2,0.4-0.3c0.1-0.1,0.2-0.4,0.3-0.6c0.1-0.1,0.1-0.2,0.2-0.4c0.2-0.2,0.6-0.4,0.7-0.6
		c0.2-0.2,0.1-0.5,0.3-0.7c0.2-0.2,0.5-0.5,0.7-0.8c0.2-0.3,0.2-0.7,0.4-0.9c0.2-0.2,0.4-0.1,0.6-0.1c0.1,0,0-0.4,0.1-0.4
		c0.1-0.1,0.1,0,0.2-0.2c0.3-0.4,0.6-0.4,1-0.9c0.2-0.2,0.5-0.8,0.7-1c0.1-0.1,0.2-0.2,0.3-0.4c0.1-0.1,0.2-0.2,0.2-0.3
		c0.1-0.1-0.1-0.3,0-0.3c0-0.1,0.3,0.1,0.3,0.1c0-0.1,0-0.3,0-0.3c0.1-0.1,0.2,0.1,0.3,0c0.1-0.1,0.1-0.5,0.2-0.6
		c0.1-0.1,0.2,0,0.3-0.1c0.1-0.1,0.2-0.3,0.3-0.4c0-0.2,0-0.3,0-0.5c0-0.1,0-0.5,0-0.6c0-0.1,0.1,0.2,0.2,0.1c0.1-0.1,0.2,0,0.3-0.1
		c0.1-0.1,0.2,0,0.3,0c0.2-0.1,0.5-0.3,0.6-0.4c0.2-0.2,0-0.5,0.1-0.7c0.1-0.1-0.4-0.2-0.3-0.2c0.1-0.1,0.2,0,0.3-0.1
		c0.1-0.1,0.3,0.1,0.4,0.1c0.1,0,0.1-0.3,0.2-0.4c0.1-0.1,0.3,0,0.4-0.1c0.1-0.1,0-0.2,0.1-0.3c0.1-0.1,0.4,0,0.5-0.2
		c0.1-0.2,0.1-0.4,0.2-0.6c0.2-0.3,0.5-0.2,0.6-0.4c0.2-0.3,0.4-0.7,0.6-0.9c0.5-0.7,1-2,1.4-2.4c0.4-0.4,0.9-0.8,1.4-1.4
		c0.2-0.3,0.7-0.8,0.9-1.1c0.2-0.3,0.3-0.6,0.5-0.9c0.1-0.1,0-0.2,0.1-0.4c0.1-0.2,0.3-0.6,0.4-0.8c0.1-0.2,0.4-0.4,0.5-0.6
		c0.1-0.2,0-0.3,0.1-0.5c0.2-0.2,0.3-0.5,0.5-0.8c0.1-0.1,0.1-0.3,0.2-0.4c0.2-0.3,0.6-0.6,0.8-0.9c0.2-0.3,0.2-0.6,0.2-1
		c0-0.2,0.1-0.5,0.3-0.7c0.1-0.1,0.2-0.1,0.2-0.2c0-0.1,0.1-0.2,0.1-0.2c0,0,0.5-0.5,0.6-0.8c0-0.1,0.2,0,0.2-0.1
		c0-0.1,0.2-0.4,0.2-0.4c0.1-0.2,0.3-0.3,0.5-0.5c0.1-0.1,0.1-0.3,0.2-0.4c0.1-0.2,0.4-0.5,0.5-0.7c0.1-0.1-0.2-0.2-0.1-0.3
		c0.1-0.3,0.5-0.5,0.7-0.8c0,0,0.1-0.4,0.2-0.7c0.8-1.8,3.4-7.3,3.8-8.5c1.9-4.6,6.5-7.9,8.1-13.7c1.6-5.7,4.2-18.6,6.4-18.6
		c2.2,0,2,6.5,1.5,9.5c-0.5,3-0.5,14.8-3.7,22.1c-3.3,7.4-6,9.3-9.8,18.1c-3.8,8.8-2.2,8.7-4.9,11.8c-2.1,2.4-3.1,6.2-0.7,7.9
		c1,0.7,2.5,0.7,4.5,0.7c0.9,0,1.6-0.2,2.4-0.3c1.8-0.2,4.2-0.2,5.3-0.7c3.7-1.6,5.1-3.9,7.2-6.5c0.7-0.8,1.8-1.1,2.6-1.6
		c0.8-0.5,1.3-1.1,2.2-1.2c2.1-0.2,4.3,0.6,5.9,2.1c3,2.7,2.2,9.6,0,13.1c-1.1,1.8-2,4.6-2.7,7.5c-0.3,1.2-0.7,2.9-0.7,4
		c0.1,1.2,0.1,2.2,1,2.7c1.3,0.9,3.5,1,6.2-0.1c1.7-0.7,3.5-2.1,5.3-3.1c2.4-1.4,4.6-2.5,6.5-4.5c5.4-5.8,6.4-8.5,7.1-10.7
		c0.2-0.7,1-0.3,1.6-0.6c0,0,0-0.1,0.4-0.3c0.1,0,0.2-0.3,0.3-0.3c0.3-0.2,1-0.4,1.4-0.6c0.6-0.3,0.5-0.7,0.7-0.9
		c0.1-0.1,0.3,0,0.5-0.3c0.2-0.3,0.3-0.7,0.4-1.1c0.1-0.3,0.3-0.6,0.3-0.9c0-0.3,0-0.7-0.2-0.9c-0.1-0.2-0.4-0.2-0.6-0.4
		c-0.1-0.1-0.2,0-0.4,0c-0.1,0-0.4-0.1-0.6-0.2c-0.2-0.2-0.4-0.5-0.6-0.5c-0.3-0.1-0.6,0.1-0.8,0c-0.2,0-0.4-0.2-0.5-0.2
		c-0.3,0-0.7,0.3-1,0.3C226.9,100.4,226.6,100.2,226.6,100.2z"/>
	<path fill="#010101" d="M464,0.2c-3.1,0-4.3-2.3-10,9.2c-1.5,3-3.7,5.5-4.5,7.3c-0.3,0.7-0.8,1-1.1,1.6c-0.2,0.3-0.2,0.9-0.4,1.2
		c-0.3,0.5-0.7,0.9-1,1.2c-0.3,0.3-0.6,0.5-0.8,0.6c-0.2,0.1-0.4,0-0.6,0.3c0,0-0.1,0.3-0.3,0.6c-0.2,0.3-0.5,0.9-0.7,1.2
		c-0.1,0.2-0.4,0-0.6,0.1c-0.2,0.2-0.1,0.5-0.1,0.6c0,0.1,0.4,0.3,0.6,0.2c0.1,0,0-0.3,0.2-0.4c0.3-0.2,0.6-0.8,0.8-0.8
		c0.3,0,0.4,1.1,0.3,1.4c-0.1,0.2,0,0.6-0.1,0.8c-0.1,0.2-0.3-0.1-0.4,0c-0.3,0.1-0.5,0.4-0.7,0.7c-0.2,0.3-0.1,0.7-0.1,1
		c0,0.3-0.1,0.6-0.3,0.7c-0.2,0.2-0.5,0.2-0.6,0.4c-0.6,0.6-0.1,1.7-0.6,2.2c-0.3,0.3-0.3,0.7-0.5,1c-0.1,0.2-0.3,0.1-0.5,0.3
		c-0.2,0.1-0.4,0.6-0.6,0.7c-0.3,0.2-0.4,0.2-0.6,0.2c-0.1,0-0.4-0.2-0.5-0.1c-0.1,0.1-0.4,0.2-0.5,0.4c-0.1,0.2-0.1,0.5-0.2,0.5
		c-0.3,0.2,0,0.3-0.2,0.4c-0.4,0.2-0.3,0.8-0.6,1.2c-0.2,0.3-0.3,0.9-0.4,1.4c-0.1,0.4-0.2,0.2-0.5,0.3c-0.2,0.1-0.3,0.7-0.5,0.8
		c-0.4,0.2,0,0.8-0.5,1c-0.2,0.1-0.5,1.6-0.7,1.7c-0.2,0.1-0.1,0.1-0.3,0.1c0,0,0.2-0.6-0.1-0.7c-0.1,0-0.3,0.4-0.5,0.5
		c-0.2,0.1-0.4-0.2-0.5-0.2c-0.4-0.1-0.8-0.2-0.8-0.2c-0.1,0,0,0.3,0.3,0.5c0.3,0.2,0.8,0.2,0.8,0.3c0,0.1,0.3,0.3,0.5,0.4
		c0.2,0.1,0.2,0.1,0.3,0.2c0.2,0.2,0.5,0.1,0.6,0.3c0.1,0.2-0.1,0.3-0.2,0.5c-0.1,0.3-0.2,0.7-0.2,1c-0.1,0.5-0.6,0.1-1,0.3
		c-0.4,0.2-1.1,0.5-1.3,0.9c-0.3,0.7-0.4,1.5-0.7,2c-0.5,0.8-0.8,2.4-1.3,2.9c-0.8,0.7-1.5,0.6-2.4,1.5c-0.6,0.6-1.3,1.9-2.2,3.7
		c-3.8,7.8-6.3,6.7-11.7,13.7c-5.4,7-10.9,16.5-16.8,20.7c-5.9,4.2-13.3,8.4-22.1,8.6c-7.6,0.2-17.2-1.8-15.2-5.1
		c0.3-0.5,1.6,0.2,2.5-0.4c0.7-0.5,1.5-0.8,2.3-1.3c1-0.6,1.9-1.8,2.8-2.4c0.8-0.5,1.9-0.6,2.6-1c0.8-0.5,1.5-1.5,2.1-2.1
		c0.6-0.5,1.6-0.9,2.1-1.5c0.7-0.8,0.9-1.7,1.4-2.8c0.3-0.6,1-1,1.4-1.8s0.4-1.9,0.7-2.8c2.6-8.8,5.5-12.7,3.7-16.4
		c-1.9-3.7-3.6-4.8-7.9-3.7c-3.5,0.9-7,5.6-10.6,9.9c-0.9,1.1-0.7,1.2-1.8,1.9c-0.9,0.6-1.8,1.4-2.8,2.1c-0.8,0.5-1.9,1.2-2.6,2.3
		c-0.6,0.9-1.1,1.1-1.8,1.3c-2.1,0.8-1,0.8-2.5,1.7c-1.1,0.6-2.4,2.7-2.8,3.6c-0.2,0.4-1.6,0.7-1.6,1.6c0,1-0.9,1.9-1.2,2.6
		c-0.4,1.1-1,1.1-1.5,2.3c-0.6,1.3-1,3-1.7,4.1c-0.4,0.7-0.4,1.9-0.8,2.4c-0.6,0.6-1.4,1-2.1,1.2c-0.6,0.2-1.1-0.2-1.8-0.4
		c-1.2-0.3-1.6-1.3-2.3-1.6c-1.2-0.7-2.2-0.9-3.3-2.9c-0.5-0.9-0.9-2.6-1.5-3.4c-0.4-0.7-2.9-0.9-3.2-1.5c-0.4-0.7,0.3-1.8,0.1-2.1
		c-1.2-2-11.9-6.3-19.2-7.2c-7.3-0.9-6.2,2-11.4,2.1s-5.6-4.3-14.4-2.5c-8.8,1.8-17.2,6.8-22.6,13.3c-5.4,6.5-6.4,14.4-6.3,16.7
		c0,0-8.6,0.2-10,0.2c-2.9-0.1-2.9-0.6-4.7-0.6c-1.4,0-3-0.8-3.8,1.1c-0.8,1.9-3.4,2.7-0.2,3.6c3.2,0.9,4.4,1.3,7.4,1.6
		c2.8,0.4,6.2-0.2,7.9,2.3s3.8,2,6.2,4.2c2.3,2.2,3.2,3.9,7,2.7c3.8-1.3,9.1-6.9,11.6-8.5c5.8-3.7,15.6-12.3,18.6-14.7
		c3-2.3,12.1-11.2,14.4-11.2c2.3,0,5,0.5,9.8,1.8c1.2,0.3,2,1.3,2.8,1.7c1,0.4,1.8,0.1,2.4,0.6c0.4,0.3,1,0.5,1.3,0.8
		c0.4,0.5,0.3,1.2,0.7,1.7c0.4,0.7,0.7,1.9,1,2.7c0.5,1.3,0.1,2,0.3,2.9c0.2,0.9,0.9,3,1,3.6c0.3,1.2,1.7,2.8,3.4,2.7
		c1.8,0,3,0.3,3.6,1.3c0.2,0.4,0.7,0.7,0.8,1.3c0.1,0.6-0.1,1.3-0.2,2.1c0,0.4,0.2,0.7,0.2,1.1c0,0.2-0.3,0.2-0.4,0.5
		c-0.2,0.7-0.1,1.9-0.1,2.6c0,0.2,0.5,0.4,0.5,0.6c0,0.2,0,0.5,0.1,0.9c0,0.1,0.3,0.4,0.2,0.5c0,0.4-0.3,0.8-0.3,1.1
		c0,0.3,0.2,0.4,0.2,0.8c0,0.2,0.3,0.4,0.4,0.6c0,0.2-0.3,0.4-0.2,0.7c0,0.2,0.2,0.4,0.4,0.6c0.2,0.2,0.4,0.4,0.5,0.6
		c0.1,0.2-0.2,0.3-0.3,0.5c-0.1,0.2,0.2,0.4,0.2,0.6c0,0.1,0,0.6,0.2,0.8c0.1,0.2,0.6,0.1,0.6,0.3c0.1,0.7,0.6,1.3,0.7,1.6
		c0.5,1.2-0.1,0.9,0.7,1.8c0.1,0.2,0.4,0.2,0.7,0.4c0.3,0.3,0.6,0.9,0.8,1.1c0.3,0.3,0.6,0.7,0.9,0.9c1.1,0.6,1,0.9,2.6,1.2
		c2.5,0.6,4.8,1,6.9,1.2c0.2,0,0.5-0.4,0.7-0.4c0.4,0,0.8,0.5,1.2,0.5c2.6,0.1,5.3,0.7,7.4,0.3c2.2-0.4,3.6-1.5,5.3-2.4
		c1.3-0.6,1.4-0.6,2.4-1.6c0.4-0.4,1.2-0.9,1.5-1.3c0.3-0.4,1.9-1.6,2.2-1.9c0.6-0.7,1.8-1.5,2.5-2c0.7-0.6,1-0.5,1.7-1.1
		c0.4-0.3,0.6-0.8,1.1-0.8c0.8,0,1.3-1,2.3-1.2c0.7-0.2,1.8-2,2.5-2.4c7.4-3.8,18.2-16,24.3-19.6c6.7-4,9.5-15.2,11.3-18
		c1.9-2.8,4.4-7.2,9.4-14.8c3.7-5.7,4.2-5.9,5.8-8.2c0.4-0.6,1.5-1.4,1.8-2.4c0.1-0.5,0.9-1.3,1.2-1.7c0.5-0.7,0.9-1.3,1.4-1.8
		c0.2-0.2,0.5-0.7,0.6-0.9c0.2-0.2-0.7-0.5-0.5-0.7c0.2-0.1-0.1-0.4,0.1-0.6c0.2-0.2,0.7-0.1,1-0.3c0.2-0.1,0.1,0.1,0.3,0
		c0.3-0.2,0.4-0.7,0.7-1c0.2-0.2,0.5-0.4,0.7-0.7c0.1-0.1,0-0.3-0.1-0.4c-0.2-0.1-0.4,0-0.3-0.1c0.1-0.1-0.1-0.5,0-0.6
		c0.3-0.3,0.6-0.8,1-1.1c0.2-0.2,0.4-0.2,0.6-0.4c0.1-0.2,0-0.4,0.1-0.6c0.2-0.2,0.5-0.3,0.6-0.5c0.1-0.1,0-0.6,0-0.7
		c0.1-0.3,0.1-0.3,0.2-0.5c0.8-2.2,0.5-4,2.3-6.5c0.8-1.2,1.1-2.2,1.5-2.9c0.2-0.4,0.6-0.7,0.7-1c0-0.2-0.2-0.2-0.4-0.3
		c-0.2-0.1-0.3-0.4-0.2-0.7c0.1-0.2,0.9,0,1.1-0.3c0.1-0.3,0.4-0.3,0.5-0.6c0.2-0.3,0.8-0.8,1-1.2c0,0,0.1-0.2,0-0.4
		c-0.1-0.3-0.4-0.6-0.4-0.7c0.1-0.3,0.3-0.2,0.5-0.5c0.2-0.4,0.8-0.8,1-1.1c0.2-0.2,0.1-0.4,0.3-0.6c0.1-0.2,0.4-0.4,0.5-0.6
		c0.1-0.3,0-0.6,0.2-0.9c0.1-0.1,0.5-0.3,0.6-0.4c0.2-0.2,0.1-0.4,0.2-0.6c0.3-0.5,0.3-1.2,0.5-1.4c0.3-0.3,0.2,0,0.5-0.1
		c0.3-0.1,0.2,0.3,0.3,0.5c0.1,0.2,0.2,0.3,0.2,0.3s-0.2,0.5-0.1,0.9c0,0.2,0.3,0.2,0.3,0.5c0.1,0.4,0.1,0.8,0.1,1.4
		c0,0.4-0.6,0.9-0.7,1.5c0,0.2-0.2,0.9-0.2,1.1c0,0.3,0.3,0.2,0.3,0.5c0,0.8-0.3,1.8-0.5,2.9c-2,7.6-4.4,12.6-4.3,22.3
		c0.2,9.8-2,3.1-5.5,16.4s-7.6,31.1-9.6,39.2c-2,8.1-8.1,27.7-8.1,36.3c0,8.5-1.9,17.8,12,19.5c8.2,1,13.5-0.2,15.3-0.2
		c1.9,0,7.4-1.6,7.4-5c0-5.3-1.3-4.8-3.6-6c-2.3-1.2-8.8-2.8-11-5.4c-2.2-2.6-4.7-7.6-4.7-10.8c0-3.3,2.4-16.4,4.4-21.2
		c3.4-7.9,6.9-22.5,7.8-29.6c0.9-7.1,2.4-13.8,5.6-24.6c3.2-10.8,6.4-22.6,6.4-27.7s1.5-5.6,2.4-8.5c0.9-2.9,2.4-14.9,2.4-17.2
		C470.3,2.2,467,0.2,464,0.2z"/>
	<path fill="#010101" d="M134,126.1c-0.1,0.1,0,0.4-0.1,0.5c-0.1,0.1-0.3,0-0.3,0c-0.1,0.1,0.1,0.3,0,0.5c-0.1,0.2-0.4,0.5-0.5,0.7
		c-0.1,0.2-0.1,0.5-0.2,0.6c-0.1,0.2-0.3,0.2-0.4,0.4c-0.1,0.2-0.3,0.4-0.3,0.6c0,0.5-0.4,0.9-0.6,1.4c-0.1,0.3-0.5,0.5-0.6,0.8
		c-0.1,0.2-0.1,0.5-0.2,0.7c-0.1,0.1-0.2,0.2-0.3,0.3c0,0.1,0.2,0.4,0.1,0.5c0,0.1-0.3-0.1-0.4,0c0,0.2-0.3,0.5-0.3,0.8
		c-0.5,2.5-0.6,5.6-1,9.4c0,0.4-0.3,0.5-0.5,0.8c-0.2,0.3-0.3,0.8-0.4,1.1c0,0.4-0.3,0.6-0.5,0.9c-0.2,0.3-0.3,0.5-0.6,0.6
		c-0.1,0-0.2,0.1-0.3,0.2c-0.2,0.1-0.1,0.2-0.3,0.3c-0.2,0.2-0.5,0.3-0.6,0.4c-0.2,0.4-0.6,1-1,1.6c-0.1,0.2-0.5,0.4-0.5,0.7
		c-0.1,0.3,0,0.7-0.2,0.9c-0.3,0.3-0.5,0.7-0.6,1c0,0.2,0.2,0.3-0.1,0.5c-0.1,0.1-0.2,0.2-0.4,0.3c-0.3,0.3-0.2,0.7-0.5,1
		c-0.2,0.2-0.4,0.6-0.6,0.9c-0.2,0.2-0.5,0.2-0.8,0.5c-0.3,0.3-0.7,0.6-1,1c-0.3,0.4-0.4,0.8-0.7,1.1c-0.1,0.1,0.2,0.3,0.1,0.4
		c-0.1,0.1-0.3-0.1-0.4,0c-0.3,0.2-0.6,0.9-0.9,1.1c-0.2,0.2-0.6,0.6-0.8,0.8c-0.1,0.1-0.7,0.6-1,1.1c-0.1,0.2,0.1,0.3-0.1,0.5
		c-0.1,0.1-0.3,0.3-0.4,0.4c-0.1,0.2-0.1,0.4-0.2,0.6c-0.3,0.4-1,0.7-1.3,1.1c-0.2,0.2-0.5,0.7-0.6,0.9c-0.1,0.2,0.2,0.2,0,0.3
		c-0.3,0.4-1,0.9-1.3,1.4c-0.2,0.4-0.1,0.7-0.3,1c-1.5,1.7-3.4,3.2-5.6,4.4c-7,4-18.7,5.5-18.1,2.4c1.1-5.1,4.6-14.9,5.2-17.2
		c0.9-3.5,3.1-9-3-15c-5.7-5.5-21.4-13.7-25-8.7c0.1-6.1,0.2-1.7,0.1-9c0-2.8,7.2-21.7,9.2-23.9c1.6-1.7,6.2-9.8,9.8-15.7
		c2.8-4.7,5.4-6.7,6.2-7.5c3.1-2.8,11-10.7,12.8-15c0.1-0.3,0.4-0.5,0.5-0.7c0.1-0.1,0.1-0.2,0.2-0.4c0-0.1,0-0.2,0-0.3
		s-0.2-0.1-0.1-0.2c0.1-0.1,0.1-0.1,0.1-0.2c0-0.1,0-0.1,0.1-0.1c0.1,0,0.1-0.1,0.1-0.1c0.1,0,0.1-0.1,0.1-0.2c0-0.1,0-0.2-0.1-0.2
		c0,0-0.1,0-0.1-0.1c0-0.2,0.1-0.1,0-0.3c0-0.1,0.2-0.3,0.1-0.4c0-0.1-0.1-0.2-0.1-0.4c0-0.1-0.1-0.2-0.1-0.3c0-0.1,0.1-0.1,0.1-0.2
		c0-0.1-0.1-0.2-0.1-0.2c0-0.1,0.1-0.2,0.2-0.4c0-0.1-0.1-0.2-0.1-0.3c0,0,0-0.2,0-0.3c0-0.1-0.1-0.3-0.1-0.4
		c-0.1-0.1-0.2-0.1-0.3-0.2c-0.1,0-0.1-0.1-0.2-0.1c-0.2-0.1-0.3-0.1-0.2-0.2c0,0,0.1-0.1,0-0.3c0-0.1-0.1-0.1-0.1-0.2
		c0-0.1,0.1-0.1,0.1-0.2c0-0.1,0-0.2,0-0.3c0.1-0.1-0.2-0.3-0.2-0.3c0-0.1-0.2-0.1-0.2-0.2c0-0.1,0.2-0.3,0.2-0.4
		c0,0,0.2-0.1,0.2-0.1c0-0.1,0-0.3,0-0.4c0-0.1,0.1-0.2,0-0.3c0-0.1,0-0.3,0-0.4c-0.1-0.3,0.1-0.6,0-0.9c-0.1-0.2-0.1-0.2-0.2-0.4
		c-0.1-0.2,0.4-0.3,0.3-0.5c0-0.1-0.1-0.1-0.2-0.2c-0.1-0.2-0.1-0.4-0.1-0.6c0-0.1-0.2-0.3-0.2-0.4c0-0.2-0.2-0.4-0.2-0.6
		c0-0.1,0.1-0.3,0.2-0.5c0.1-0.1,0.3-0.1,0.2-0.2c0-0.2-0.2-0.2-0.3-0.4c0-0.1,0.1-0.1,0-0.2c0-0.2-0.2-0.4-0.3-0.4
		c-0.1-0.1-0.2,0.2-0.3,0.1c-0.1-0.2,0.1,0.6-0.1,0.4c-0.1-0.2,0,0.6-0.2,0.4c-0.1-0.2,0.2,0.9,0.1,0.6c0,0,0.1,0.2,0,0.4
		c0,0.3-0.1,0.5-0.2,0.6c-0.1,0.1-0.2,0.1-0.2-0.1c0-0.1,0.1-0.4,0-0.4c-0.1-0.1-0.1,0-0.2,0c-0.1,0-0.3,0-0.3-0.1
		c0,0,0.1-0.2,0.1-0.4c0-0.1-0.1-0.1-0.2-0.2c-0.1-0.1,0-0.4,0-0.5c0,0,0.2,0,0.2,0.1c0.1,0.1,0,0.3,0.1,0.3c0.1-0.1,0.1,0,0.2-0.1
		c0.1-0.1,0.1-0.6,0.1-0.7c0,0,0.1-0.1,0.1,0c0,0,0.1,0.2,0.1,0.1c0-0.1,0.1-0.1,0.1-0.2c0-0.1,0-0.1,0-0.2c0-0.2,0-0.3,0-0.3
		c0-0.1-0.2,0.1-0.4,0.1c-0.1,0-0.2,0.1-0.2,0.1c-0.1,0-0.1-0.2-0.1-0.2c-0.1-0.1,0.1-0.4,0.1-0.6c0-0.2,0-0.2-0.1-0.4
		c0-0.1,0.1-0.4,0.1-0.5c0-0.1,0-0.2,0-0.3c0-0.1,0.1-0.1,0.1-0.1c0-0.1-0.1-0.1-0.2-0.1c-0.1-0.1-0.1-0.2-0.1-0.3
		c0-0.1,0.2-0.1,0.2-0.2c0-0.1-0.1,0-0.2,0c-0.1-0.1-0.1-0.2-0.1-0.3c0-0.1,0.2-0.1,0.2-0.2c0,0-0.1,0-0.2-0.1s-0.3-0.4-0.3-0.4
		c0-0.1,0-0.2,0-0.3c0-0.1-0.1-0.2-0.1-0.3c0-0.1,0.1-0.2,0.1-0.3c0-0.1,0.1-0.1,0.1-0.2c0-0.9-0.1-1.5-0.3-2.1
		c-0.2-0.7-0.3-1.4-0.7-1.8c-0.1-0.2-0.3,0-0.4-0.1c-0.2-0.3-0.1-1.8-0.4-2.2c0,0-0.1-0.1-0.1-0.1c0,0-0.1,0-0.1,0
		c0,0-0.1-0.1-0.1-0.2c-0.1,0-0.2-0.1-0.2-0.1c0-0.1,0-0.1,0.1-0.2c0-0.1,0-0.3-0.1-0.4c0-0.1,0-0.2,0-0.2c-0.1-0.2-0.2-0.3-0.2-0.3
		c0,0-0.1,0-0.2-0.1c0,0-0.1-0.1-0.1-0.2c0-0.1,0.1-0.3,0.1-0.4c0-0.1-0.2,0-0.2-0.1c0,0,0.1-0.1,0.1-0.1c0-0.1,0-0.1-0.1-0.2
		c0-0.1-0.1-0.1-0.1-0.2c0,0,0.1-0.1,0.1-0.1c0-0.1,0-0.2,0-0.3c0-0.1-0.2-0.2-0.3-0.2c0-0.1,0.1-0.1,0.1-0.2c0-0.1-0.2-0.1-0.2-0.2
		c0,0,0.1-0.1,0.1-0.1c0-0.1,0,0,0,0c0,0-0.1,0.1-0.1,0.2c0,0,0.1,0,0.1,0.1c0,0.1-0.1,0.1-0.1,0.2c0,0.1,0.1,0.1,0.1,0.1
		c0,0.1-0.1,0.2-0.1,0.2c0,0,0.1,0.1,0.1,0.2c0,0.1,0,0.1,0,0.1c0,0.1,0.1,0,0.1,0.1c0,0,0,0,0,0.1c0,0-0.1,0-0.1,0
		c0,0.1,0.1,0.1,0.1,0.1c0,0-0.1,0.1-0.1,0.1c0,0,0.1,0,0.1,0.1c0,0.1,0,0.1,0,0.2c0,0.1,0,0.1,0,0.2c0,0.1,0,0.2,0,0.2
		c0,0.1,0.1,0.1,0.1,0.2s0,0.2,0.1,0.3c0,0.2,0,0.4,0,0.5c0,0.1-0.1,0-0.1,0.1c0.1,0.3,0.1,0.4,0,0.4c0,0,0-0.1-0.1-0.1
		c0,0-0.1,0-0.1,0c0,0,0.1-0.1,0.1-0.2c0-0.1,0-0.1,0-0.2c0-0.1-0.2-0.1-0.2-0.2c0,0,0-0.1,0-0.2s0.1-0.1,0.1-0.1
		c0-0.1-0.2-0.1-0.3-0.3c0-0.1,0.1-0.1,0.1-0.2c0,0-0.1-0.1-0.1-0.1c0-0.1,0.1-0.1,0.1-0.2c0-0.1-0.2-0.1-0.2-0.1
		c0-0.1,0-0.2-0.1-0.3c0,0-0.1,0.1-0.2,0c0,0,0-0.1,0-0.1c0-0.1-0.1,0-0.1,0c0,0-0.1-0.1,0-0.2c0-0.1,0.1-0.1,0.1-0.2
		c0-0.1-0.1-0.1-0.1-0.2c0-0.1,0.1-0.1,0.1-0.1c0,0,0.1,0.2,0.2,0.1c0,0,0-0.1,0-0.1c0,0,0.1,0,0.1-0.1c0-0.1-0.2-0.1-0.1-0.1
		c0,0,0.1,0,0.1-0.1c0-0.1-0.1-0.2-0.2-0.3c0,0,0,0,0-0.1c0,0,0.1-0.1,0.1-0.1c0,0-0.1-0.1-0.1-0.1c0,0-0.1,0.2-0.1,0.1
		c0,0,0.1,0.1,0.1,0.1c0,0,0,0.1,0,0.1c0,0-0.1,0.1-0.1,0c0,0-0.1,0.2-0.2,0.1c0,0-0.1,0-0.1-0.1c0,0,0.1,0,0.1-0.1c0,0,0-0.1,0-0.1
		c0-0.1,0-0.2,0-0.2c0,0,0.1-0.2,0-0.2c-0.1-0.1-0.2-0.1-0.2-0.1c0,0,0.1-0.1,0.1-0.1c0-0.1,0.1-0.2,0.1-0.1s0,0.3,0,0.3
		c0,0.1,0.1,0.1,0.1,0.1c0.1,0,0.1-0.1,0.1-0.1c0-0.1,0.1,0,0.1-0.1c-0.1-0.1-0.1-0.2-0.2-0.3c-0.1-0.1-0.1-0.2-0.2-0.2
		c-0.1-0.1-0.3,0-0.3-0.1c-3.1-4-6.5-7.4-7.5-8.6c-1.9-2.5-7.3-5.1-11.8-1.8c-2.6,1.9-6.5,5.2-10.1,9.5c-5.7-0.3-8.9,3-14.3,4
		c-6.8,1.3-11.2,5.3-17.7,11.2C29,52,9.9,69.5,4,76.5c-5.9,7-4.3,18.8-1.5,27.5c1.2,3.7,4.1,8.5,7.5,13.5
		c4.5,6.6,9.9,13.6,13.5,18.7c6.2,9,12.5,9.6,16.5,9.3c3.9-0.3,11.7-2.1,14.9-7.1c-0.1,3.2-0.2,6.2-0.3,8.9
		c-0.4,0.6-0.4,1.2-0.4,1.7c0.1,0.5-0.3,1.3-0.7,2.3c-0.1,0.3-0.3,1.4-0.4,1.7c-0.3,0.7-0.6,1.4-0.9,2.2c-0.4,1.2-0.7,2.6-1,3.8
		c-0.2,0.9-1,2-1.1,2.8c-0.1,0.7-0.6,1.1-0.6,1.7c0,5.3-2.8,8.1-3.7,10.9c-0.9,2.8-5.3,5.6,0,11.2c5.3,5.6,11.2,5,15.3,4.1
		c4.1-0.9,8.2-1.3,10.5-3.3c2.2-2,5-3,15.4-3.9c10.4-0.9,11.2,1.5,16.7-2c2.8-1.8,4.7-2,6.3-2.7c1.2-0.4,2.2-1,3.2-1.8
		c0.5-0.4,0.7-0.6,0.9-0.9c0.1-0.2,0.2-0.5,0.6-0.8c0.3-0.2,0.5-0.6,0.7-0.9c0.5-0.6,0.8-1.3,1.3-1.6c0.6-0.4,0.8-1.4,1.2-2.1
		c0.4-0.6,1-0.9,1.1-1.3c0.2-0.4,0.3-0.7,0.6-1.1c0.1-0.2,0.5-0.4,0.4-0.7c0-0.9,0-0.7,0.4-1.2c0.1-0.1-0.1-0.5,0.1-0.7
		c0.6-0.4,0.6-0.6,0.9-1c0.3-0.3,0.1-0.8,0.4-1.1c0.1-0.1,0.2,0,0.3-0.1c0.3-0.6,0.6-1.4,0.7-2.3c0.1-0.3,0.4-0.2,0.5-0.5
		c0.3-0.9-0.1-1.3,0.1-1.6c0.7-1.1,0.3-3.1,1.2-4.1c0.3-0.4,0.7-0.8,1-1.2c1.3-1.5,2.5-2.9,3.2-4.2c0.2-0.4,0.5-0.7,0.8-1.1
		c0.3-0.5,0.3-1,0.6-1.6c0.1-0.2,0.5-0.6,0.6-0.8c0.1-0.1-0.1-0.3-0.1-0.4c0.1-0.1,0.3-0.1,0.4-0.2c0.1-0.2,0.1-0.6,0.2-0.8
		s0.4-0.3,0.5-0.5c0.1-0.2-0.1-0.4,0-0.6c0.1-0.2,0.5-0.4,0.6-0.7c0.1-0.3,0.3-0.6,0.4-0.9c0.1-0.2-0.1-0.2,0-0.4
		c0.1-0.2,0.5-0.5,0.6-0.7c0.1-0.2-0.1-0.5,0-0.7c0.1-0.3,0.3-0.5,0.4-0.8c0.1-0.2,0.2-0.3,0.3-0.4c0.1-0.1-0.1-0.2,0-0.4
		c0.2-0.5,0.3-0.3,0.5-0.7c0.1-0.2,0.5-1,0.6-1.2c0-0.1-0.2-0.4-0.1-0.4c0.1-0.2,0.2,0,0.3-0.2c0.1-0.3,0.3-0.6,0.4-0.9
		c0.1-0.1-0.2-1.1-0.1-1.2c0-0.1,0.2,0.2,0.3,0.1c0.1-0.3,0.4-1,0.6-1.3c0-0.1-0.2-0.1-0.1-0.2c0.1-0.1,0.2-0.1,0.3-0.2
		c0.1-0.2,0-0.5,0-0.7c0-0.2,0.2-0.2,0.2-0.3c0-0.3-0.2-0.4-0.2-0.8c0.1-0.6-0.1-1.4-0.1-1.8c0-0.3,0.2-0.3,0.2-0.6
		c0-0.2-0.2-0.3-0.3-0.5c-0.1-0.3-0.3-0.7-0.4-0.8c-0.2-0.2-0.7-0.1-0.9-0.1c-0.2,0-0.4-0.7-0.7-0.6c-0.2,0.1-0.5,0.1-0.7,0.4
		C134,125.7,134.1,126.1,134,126.1z M83.6,36.9c3.1,2.8,7.7,2.3,7.8,10.1c0,0.2,0.1,0.5,0.1,0.8c0,0.6,0,1.1,0,1.7
		c0,0.7-0.2,1.2-0.2,1.8c0,0.2-0.1,0.4-0.1,0.6c0,0.1,0,0.2,0,0.4c0,0.1-0.1,0.2-0.1,0.3c0,0.2-0.1,0.6-0.1,0.8c0,0.2,0,0.3,0,0.4
		c0,0.1-0.1,0.2-0.2,0.3c0,0,0.1,0,0.1,0c0,0,0,0.1,0,0.1c0,0.2-0.1,0.4-0.1,0.7c0,0.1,0,0.3,0,0.4c0,0.1,0.1,0.2,0,0.4
		c0,0.1,0,0.1,0,0.2c0,0.1-0.1,0.1-0.2,0.2c0,0.1-0.1,0,0,0.1c0,0.1,0.1,0.1,0.1,0.2c0,0,0,0.1,0,0.2c0,0-0.1,0.1-0.1,0.1
		c0,0.1,0,0.1,0,0.2c0,0.1,0.1,0.1,0.1,0.1c0,0-0.1,0.1-0.1,0.1c0,0.1,0,0.1,0,0.2c-0.3,1.8-0.6,3.4-0.9,4.4
		c-0.1,0.3-0.2,0.5-0.3,0.7c-0.1,0.2-0.1,0.4-0.2,0.5c-0.1,0.2-0.1,0.2-0.1,0.2c0,0.1-0.1,0.2-0.1,0.4c0,0.1-0.1,0.1-0.1,0.1
		c-0.1,0.1,0.1,0.5,0,0.5c-0.1,0.1-0.1,0.2-0.2,0.3c-0.1,0.1,0,0.2-0.1,0.4c-0.1,0.1-0.2,0.3-0.2,0.4c0,0.1-0.1,0.1-0.1,0.2
		c-0.1,0.1,0,0.2,0,0.2c-0.1,0.1,0,0.2,0,0.2c0,0.1-0.2,0.1-0.2,0.1c0,0.1,0,0.2-0.1,0.2c-0.1,0.1,0,0.3,0,0.3
		c0,0.1-0.1,0.1-0.2,0.1c0,0.1,0,0.2,0,0.2c-0.1,0.1-0.2,0.2-0.3,0.3c0,0.1,0.1,0.1,0.1,0.1c-0.1,0.1-0.1,0.1-0.2,0.2
		c0,0.1,0.1,0.2,0,0.2c0,0.1-0.1,0-0.1,0.1c-0.1,0.1,0,0.2-0.1,0.2c-0.1,0.2-0.1,0.2-0.2,0.4c0,0.1,0,0.1,0,0.2
		c-0.2,0.2-0.4,0.4-0.5,0.7c0,0.1,0,0.3,0,0.3c0,0.1-0.2,0.1-0.2,0.1c0,0.1,0,0.1,0,0.2s-0.1,0-0.1,0c0,0,0,0.1-0.1,0.2
		c0,0.1-0.1,0.1-0.1,0.1c0,0,0,0.1,0,0.2c0,0.1,0,0.1,0,0.2c0,0-0.1,0-0.2,0.1c0,0-0.1,0-0.1,0c0,0.1,0.1,0.1,0.1,0.2
		c0,0-0.1,0-0.1,0.1c0,0,0,0.1,0,0.1c0,0-0.1,0-0.1,0c-0.1,0.2-0.2,0.3-0.3,0.5c0,0.1,0,0.2,0,0.3c0,0-0.1,0-0.1,0
		c0,0.1,0,0.2-0.1,0.2c0,0-0.1,0-0.1,0.1c0,0,0,0.1-0.1,0.1c0,0,0,0.2,0,0.2c0,0-0.1,0-0.1,0c0,0,0,0,0,0.1c0,0,0,0.1-0.1,0.1
		c-0.1,0-0.2,0.1-0.2,0.1c0,0.1,0,0.1-0.1,0.2c0,0.1,0,0.2,0,0.2c0,0-0.1,0-0.1,0c0,0.1-0.1,0.1-0.2,0.2c0,0,0,0.1,0,0.2
		s-0.1,0.1-0.1,0.1c0,0-0.1,0.1-0.1,0.2c0,0.1,0,0.1,0,0.2c-0.1,0.2-0.2,0.2-0.3,0.4c0,0-0.1-0.1-0.1,0c0,0,0,0.1-0.1,0.1
		c0,0,0,0.2-0.1,0.2c0,0-0.2,0.1-0.2,0.1c0,0,0-0.2-0.1-0.2c0,0,0,0-0.1,0.1c-0.1,0.1,0,0.2-0.1,0.3c-0.1,0.2-0.4,0.3-0.5,0.4
		c-0.1,0.1-0.2,0.4-0.3,0.5c-0.1,0.1-0.3,0.2-0.3,0.2c-0.1,0.1-0.2,0.1-0.3,0.2c-1,1.3-1.7,2.2-2.2,3.1C77.4,83,67.4,96.2,65.9,99.3
		c-0.1,0.2-0.3,0.5-0.5,0.8c-0.3-7.3-0.7-13.4-1-15.9c-1.2-8.5,0.5-12.4-0.3-24.6c-0.8-12.2,3.5-18.9,4.2-20.2
		c0.2-0.5,1.9-1.3,4.1-2.1c0.3,0.1,0.5,0.2,0.5,0.2s1.5-0.4,2.7-1.1C78.8,35.8,82.2,35.6,83.6,36.9z M50.5,119.7
		c-5.1,5.4-13.1,4.9-19.8,1.1C24,116.9,13.8,99.3,10.6,90c-3.1-9.3,1-10.8,5.1-15.6c4.1-4.8,9.5-12,16.4-19
		c6.9-7,11.8-12.4,21.1-16.3s6.4-3.4,9.5-3.6c0.4,0,0.8,0,1.3,0c-2.3,3.4-4.2,7.2-5,11.2c-2.5,11.6-3.2,40.6-3.4,56.7
		c0,2.2-0.1,5.9-0.2,10.4C53,116.7,52.3,117.8,50.5,119.7z M79.4,157.3c-1.9,1.4-4.2,8.9-7.2,14.2c-3,5.4-3.2,5.3-8.1,5.4
		c-1.9,0-2.6-5.8-2.8-10s6.9-15.6,9.2-18.7s4.2-1.4,7,0C80.3,149.6,81.3,155.9,79.4,157.3z"/>
</g>
</svg>
